<?xml version="1.0" encoding="UTF-8"?>
<svg version="1.1" xmlns="http://www.w3.org/2000/svg" width="512" height="512">
<path d="M0 0 C1.51427582 0.00081573 1.51427582 0.00081573 3.05914307 0.00164795 C19.57458953 0.04242844 35.47683935 0.97005679 51.6875 4.375 C52.70279785 4.58398926 53.7180957 4.79297852 54.76416016 5.00830078 C92.00040584 12.92018809 126.62809467 29.08993998 156.6875 52.375 C157.58597656 53.06078125 158.48445313 53.7465625 159.41015625 54.453125 C166.16897392 59.72307475 172.48687048 65.46654674 178.6875 71.375 C179.28788086 71.94669922 179.88826172 72.51839844 180.50683594 73.10742188 C188.85558817 81.1156726 196.50086051 89.33988882 203.39013672 98.63769531 C204.67537142 100.35875856 205.9917016 102.051388 207.31640625 103.7421875 C231.26453669 134.74908302 247.30764906 172.78154867 253.6875 211.375 C253.81171326 212.12329071 253.93592651 212.87158142 254.06390381 213.64254761 C256.37569038 227.9191862 257.18248824 241.86293816 257.0625 256.3125 C257.05552094 257.82062759 257.05552094 257.82062759 257.04840088 259.35922241 C256.96979258 273.86648411 256.67154929 288.12770628 253.6875 302.375 C253.38948486 303.83728027 253.38948486 303.83728027 253.08544922 305.32910156 C240.62536762 364.89482498 208.7351363 421.24866419 159.6875 458.375 C159.14867187 458.79023926 158.60984375 459.20547852 158.0546875 459.63330078 C126.18482453 484.13415115 89.63168759 500.62642134 50.25 508.6875 C49.53110596 508.83485596 48.81221191 508.98221191 48.0715332 509.1340332 C33.39589502 511.92340125 18.87081162 512.72392619 3.96020508 512.69067383 C1.02061513 512.6875221 -1.9179558 512.71104926 -4.85742188 512.73632812 C-18.23056192 512.78098737 -31.12666711 511.57551542 -44.3125 509.375 C-46.01805054 509.09281616 -46.01805054 509.09281616 -47.75805664 508.80493164 C-91.02552759 501.03294532 -132.07543216 481.04595309 -165.3125 452.375 C-166.05757813 451.74078125 -166.80265625 451.1065625 -167.5703125 450.453125 C-181.07529833 438.64198485 -193.74668743 425.89139772 -204.3125 411.375 C-205.16899066 410.22505169 -206.02576433 409.07531411 -206.8828125 407.92578125 C-212.92284209 399.73565742 -218.30617614 391.23120382 -223.3125 382.375 C-223.7146875 381.66778809 -224.116875 380.96057617 -224.53125 380.23193359 C-237.5566741 357.09654164 -246.30551461 331.92537591 -251.625 305.9375 C-251.77235596 305.21860596 -251.91971191 304.49971191 -252.0715332 303.7590332 C-255.04539088 288.11274391 -255.68550362 272.63931954 -255.625 256.75 C-255.62284485 255.73209381 -255.6206897 254.71418762 -255.61846924 253.66543579 C-255.56879854 239.05636477 -255.31790191 224.72424147 -252.3125 210.375 C-252.11382324 209.40014648 -251.91514648 208.42529297 -251.71044922 207.42089844 C-241.58982806 159.0390226 -219.6733123 115.05071731 -185.3125 79.375 C-184.68037598 78.71564453 -184.04825195 78.05628906 -183.39697266 77.37695312 C-174.25252521 67.88869695 -164.95515991 59.1487956 -154.3125 51.375 C-153.16144983 50.51693848 -152.01040823 49.65886549 -150.859375 48.80078125 C-142.66974019 42.76322604 -134.16711724 37.38042698 -125.3125 32.375 C-124.60528809 31.9728125 -123.89807617 31.570625 -123.16943359 31.15625 C-100.03404164 18.1308259 -74.86287591 9.38198539 -48.875 4.0625 C-48.15610596 3.91514404 -47.43721191 3.76778809 -46.6965332 3.6159668 C-31.16987908 0.66484793 -15.76936592 -0.03207988 0 0 Z M-40.3125 26.375 C-41.22064453 26.54660645 -42.12878906 26.71821289 -43.06445312 26.89501953 C-76.58851099 33.44872686 -108.83160299 46.99752023 -136.3125 67.375 C-136.91932617 67.82488281 -137.52615234 68.27476563 -138.15136719 68.73828125 C-147.05173457 75.40515115 -155.29665938 82.67557414 -163.3125 90.375 C-164.2096875 91.2309375 -165.106875 92.086875 -166.03125 92.96875 C-206.54297534 132.48018582 -231.42816178 190.5708309 -232.515625 247.04296875 C-232.54790196 249.88287879 -232.56017465 252.72241564 -232.5625 255.5625 C-232.56317474 256.30866577 -232.56384949 257.05483154 -232.56454468 257.8236084 C-232.49542517 306.26927984 -217.25167538 354.34787263 -188.3125 393.375 C-187.63767578 394.28523926 -187.63767578 394.28523926 -186.94921875 395.21386719 C-180.28234885 404.11423457 -173.01192586 412.35915938 -165.3125 420.375 C-164.4565625 421.2721875 -163.600625 422.169375 -162.71875 423.09375 C-127.2372957 459.47346897 -77.42914375 482.23159675 -27.3125 488.375 C-26.59352539 488.4692627 -25.87455078 488.56352539 -25.13378906 488.66064453 C33.43801305 495.53625087 95.07611106 478.38965515 141.6875 442.375 C146.13921298 438.84044431 150.43182098 435.14204298 154.6875 431.375 C156.02748047 430.20130859 156.02748047 430.20130859 157.39453125 429.00390625 C166.68975596 420.76528159 174.9915213 412.12844847 182.6875 402.375 C183.48027344 401.39917969 184.27304687 400.42335938 185.08984375 399.41796875 C192.13768242 390.56641781 198.04786776 381.17541851 203.6875 371.375 C204.11562988 370.63540039 204.54375977 369.89580078 204.98486328 369.13378906 C220.09677467 342.70102679 228.96774996 313.52203836 232.6875 283.375 C232.7817627 282.6516748 232.87602539 281.92834961 232.97314453 281.18310547 C233.90131865 273.22803895 233.93098921 265.24878285 233.9375 257.25 C233.93817474 256.50133667 233.93884949 255.75267334 233.93954468 254.98132324 C233.87057576 206.51229154 218.6423925 158.42332333 189.6875 119.375 C189.01267578 118.46476074 189.01267578 118.46476074 188.32421875 117.53613281 C181.65734885 108.63576543 174.38692586 100.39084062 166.6875 92.375 C165.8315625 91.4778125 164.975625 90.580625 164.09375 89.65625 C123.09226208 47.61674972 63.64550975 23.7782743 5.35009766 23.02587891 C-10.04640203 22.90356114 -25.1485863 23.4859644 -40.3125 26.375 Z " fill="#000000" transform="translate(255.3125,-0.375)"/>
<path d="M0 0 C3.47490479 1.88224009 4.64145321 3.10868059 6.10996819 6.75929451 C7.02202719 10.08020348 7.24646393 12.79031414 7.24050903 16.22628784 C7.24325836 17.45458817 7.24600769 18.68288849 7.24884033 19.94841003 C7.24176353 21.29617409 7.23449394 22.64393714 7.22705078 23.99169922 C7.2264862 25.42113741 7.22680415 26.85057618 7.22793579 28.28001404 C7.22850847 32.14942119 7.21676791 36.01870377 7.20278788 39.88808203 C7.19026639 43.93597116 7.1891089 47.98386329 7.18673706 52.0317688 C7.18052646 59.69207018 7.16412132 67.35231432 7.14403808 75.01259053 C7.12166601 83.73565117 7.11068236 92.45871459 7.10064721 101.18179679 C7.07975473 119.12123028 7.04458691 137.06061054 7 155 C8.25201202 154.99333817 9.50402405 154.98667633 10.79397583 154.97981262 C22.59442783 154.91899101 34.39484802 154.87402222 46.19542122 154.84456348 C52.26218322 154.82890932 58.32881865 154.80767527 64.39550781 154.77368164 C70.25046915 154.74107979 76.10530875 154.72314511 81.96035385 154.71536827 C84.19386588 154.70982629 86.42737126 154.69900419 88.66083145 154.68280983 C91.78982173 154.66102498 94.91830933 154.65803357 98.04736328 154.65942383 C98.97021622 154.648638 99.89306915 154.63785217 100.84388733 154.6267395 C106.84655153 154.65558881 110.96109775 155.63930769 115.8203125 159.4140625 C118.12376253 162.5107536 118.11234412 166.24638454 118 170 C116.44446848 173.76602367 114.43685584 175.8519651 111 178 C108.13315416 178.95561528 106.33470794 179.12976001 103.35845947 179.14044189 C102.40523804 179.14615204 101.4520166 179.15186218 100.46990967 179.15774536 C99.42570862 179.15886322 98.38150757 179.15998108 97.30566406 179.16113281 C96.20456299 179.16609772 95.10346191 179.17106262 93.96899414 179.17617798 C90.31786478 179.19081043 86.66677889 179.19760376 83.015625 179.203125 C80.48077391 179.20887596 77.94592284 179.2146337 75.41107178 179.22039795 C70.77162795 179.229567 66.13219719 179.23586578 61.49274659 179.2388947 C54.67375823 179.24337144 47.85497072 179.2609021 41.03604341 179.2898953 C35.12272096 179.31416127 29.20944825 179.32184124 23.29607391 179.32357025 C20.7842881 179.32659649 18.27250313 179.33462402 15.76074982 179.34775543 C12.24431693 179.36482553 8.72837167 179.36293289 5.21191406 179.35644531 C4.17580994 179.3656601 3.13970581 179.37487488 2.07220459 179.3843689 C-3.73252395 179.35085164 -7.88205015 178.81255353 -13 176 C-16.84957592 171.89378568 -17.12643505 168.11532129 -17.14044189 162.65008545 C-17.14341302 162.00317631 -17.14638414 161.35626717 -17.1494453 160.68975472 C-17.15812949 158.51809166 -17.15964031 156.34648374 -17.16113281 154.17480469 C-17.16576124 152.61923607 -17.17078593 151.06366858 -17.17617798 149.50810242 C-17.18930282 145.27860653 -17.19574726 141.04912653 -17.20018864 136.81961346 C-17.2031196 134.17673974 -17.20722449 131.53387037 -17.21169281 128.89099884 C-17.2253688 120.62086054 -17.2350346 112.35073216 -17.2388947 104.08058333 C-17.24337397 94.53639548 -17.2609153 84.99235094 -17.2898953 75.44820666 C-17.31152091 68.0697509 -17.32159947 60.69133544 -17.32293582 53.31284833 C-17.32398334 48.9066983 -17.32987974 44.50068298 -17.34775543 40.09456635 C-17.36425104 35.94787375 -17.36638444 31.80141689 -17.35761642 27.65470314 C-17.35684681 26.13538036 -17.36117883 24.61604482 -17.37107468 23.09675407 C-17.3838241 21.01684041 -17.37790207 18.93775792 -17.36749268 16.85784912 C-17.36895924 15.69567745 -17.3704258 14.53350578 -17.3719368 13.33611679 C-16.84609361 8.61952431 -15.52361359 4.54895436 -12.12109375 1.08984375 C-8.21848676 -0.91536316 -4.26213376 -0.61479725 0 0 Z " fill="#000000" transform="translate(261,89)"/>
</svg>
