<?xml version="1.0" encoding="UTF-8"?>
<svg version="1.1" xmlns="http://www.w3.org/2000/svg" width="512" height="512">
<path d="M0 0 C4.54909172 -0.10071218 9.09750101 -0.17231139 13.64746094 -0.21972656 C15.18728977 -0.23954171 16.72704658 -0.2666021 18.26660156 -0.30175781 C32.3580868 -0.61490193 45.77922153 0.95646108 58.375 7.8125 C59.03653076 8.15941895 59.69806152 8.50633789 60.37963867 8.86376953 C66.97444113 12.39270156 73.49048844 16.05029542 78.3828125 21.80078125 C81.1440971 24.9209484 83.30040765 27.05562447 87 29 C92.63329221 29.27294915 98.13226077 27.26989447 103.47412109 25.69140625 C107.53712989 24.57924301 111.65056341 23.93475135 115.8125 23.3125 C116.61067139 23.19068359 117.40884277 23.06886719 118.23120117 22.94335938 C146.31049954 18.78819194 174.06026666 21.01348121 201.68359375 26.87890625 C202.61929199 27.07129883 203.55499023 27.26369141 204.51904297 27.46191406 C206.49896955 27.89133329 208.45955579 28.40961188 210.41015625 28.95703125 C213.19509281 29.27787535 213.19509281 29.27787535 215.5 27.0078125 C216.325 26.05648438 217.15 25.10515625 218 24.125 C231.10896983 9.89867158 251.0265788 0.6780589 270.39013672 -0.3215332 C274.76287498 -0.43510964 279.12792266 -0.35314716 283.5 -0.25 C285.01690288 -0.22985693 286.53383229 -0.21162027 288.05078125 -0.1953125 C291.70108966 -0.1520431 295.35036241 -0.08347165 299 0 C306.61070377 14.74927951 313.25755669 31.04961727 313.0625 47.93505859 C313.04884399 49.65878189 313.04884399 49.65878189 313.03491211 51.41732788 C313.02339111 52.64859406 313.01187012 53.87986023 313 55.1484375 C312.99884078 57.79039887 312.99975659 60.43226932 313.00390625 63.07421875 C313.01007172 67.2126396 313.00526988 71.34969951 312.94873047 75.48779297 C312.7374611 92.00631246 313.10807624 104.3917734 323 118 C324.48064668 120.89120037 325.68392262 123.83159051 326.8125 126.875 C327.09109863 127.6069458 327.36969727 128.3388916 327.65673828 129.09301758 C330.61761289 137.18418016 332.48912285 145.52963826 334 154 C334.19207031 155.06605469 334.38414062 156.13210937 334.58203125 157.23046875 C338.62494857 193.69229316 328.6904939 228.53810558 306.0390625 257.28125 C283.85180818 284.72300962 254.47078448 304.79668129 221 316 C221.804375 316.9075 222.60875 317.815 223.4375 318.75 C240.30958484 338.64632646 248.18645797 358.47352276 248.11352539 384.73803711 C248.11321872 386.15062488 248.11335312 387.56321281 248.11389065 388.97580051 C248.11411556 392.74412647 248.10833753 396.5124204 248.10128021 400.28073883 C248.09556739 403.82229204 248.09531612 407.36383762 248.09460449 410.90539551 C248.089366 421.24943455 248.07540477 431.59346768 248.0625 441.9375 C248.041875 465.058125 248.02125 488.17875 248 512 C182.99 512 117.98 512 51 512 C51 494.18 51 476.36 51 458 C38.79544396 458.11787478 38.79544396 458.11787478 26.59130859 458.27026367 C2.27685369 458.47282717 -17.62520698 451.46250188 -35.53515625 434.5546875 C-47.57540899 422.0755666 -53.29187492 405.26203359 -58.88037109 389.20458984 C-59.6176578 387.09744443 -60.3739774 384.99790121 -61.1328125 382.8984375 C-61.56480957 381.66786621 -61.99680664 380.43729492 -62.44189453 379.16943359 C-64.17264871 375.64880516 -65.7031928 374.08174272 -69 372 C-72.46383126 371.41339986 -72.46383126 371.41339986 -76.1875 371.4375 C-86.44806692 371.04209522 -95.15190558 368.96155042 -103 362 C-111.09079755 352.50412119 -113.13615997 343.33458752 -112.28125 331.109375 C-111.1983398 322.98754853 -106.39751551 316.36224829 -100.08984375 311.3984375 C-94.79294221 307.85396881 -89.32841546 304.92115021 -82.85839844 304.80712891 C-81.60999176 304.78303452 -81.60999176 304.78303452 -80.33636475 304.75845337 C-76.49053028 304.71347813 -72.64486571 304.67283971 -68.79882812 304.64990234 C-66.78764162 304.63347529 -64.77651019 304.60636481 -62.765625 304.56787109 C-41.37750533 304.16118562 -27.0163908 308.11413092 -11.203125 323.203125 C-4.80362934 331.32730743 -0.96770704 341.27218034 3.125 350.6875 C8.03504524 364.17672611 8.03504524 364.17672611 16.375 375.375 C16.91898438 375.83648437 17.46296875 376.29796875 18.0234375 376.7734375 C22.43314664 379.50989732 26.94030121 380.2558856 32.0546875 380.4140625 C33.16328125 380.45273437 34.271875 380.49140625 35.4140625 380.53125 C36.55617187 380.5621875 37.69828125 380.593125 38.875 380.625 C40.0403125 380.66367187 41.205625 380.70234375 42.40625 380.7421875 C45.27067864 380.83610319 48.13510692 380.92177983 51 381 C51.02497559 380.19763916 51.04995117 379.39527832 51.07568359 378.56860352 C51.87205785 358.04892532 59.21869593 337.32172928 73 322 C74.67904468 320.01004361 76.3390725 318.00516118 78 316 C76.16501953 315.30777344 76.16501953 315.30777344 74.29296875 314.6015625 C49.77522445 305.1828015 28.41609882 292.72747347 9 275 C7.69482422 273.82050781 7.69482422 273.82050781 6.36328125 272.6171875 C-14.17081643 253.10814139 -27.76366098 227.46387762 -34 200 C-34.226875 199.02546875 -34.45375 198.0509375 -34.6875 197.046875 C-39.74233959 170.78979155 -34.97167707 143.88426151 -24.5625 119.625 C-24.29856445 119.00737793 -24.03462891 118.38975586 -23.76269531 117.75341797 C-22.52098091 114.97247971 -21.28034647 112.398733 -19.52249146 109.89855957 C-14.64022926 102.84831708 -14.16961851 97.10543933 -14.30078125 88.6796875 C-14.29418991 87.4222171 -14.28759857 86.1647467 -14.2808075 84.86917114 C-14.26634386 81.54397744 -14.27562015 78.22081953 -14.29931641 74.89581299 C-14.55851569 35.16512264 -14.55851569 35.16512264 -8.125 18.125 C-7.89425781 17.47015625 -7.66351563 16.8153125 -7.42578125 16.140625 C-5.38912803 10.54255145 -2.73445272 5.28570389 0 0 Z M15 22 C14.19115443 24.3493568 13.4034647 26.7030522 12.625 29.0625 C12.40328125 29.69994141 12.1815625 30.33738281 11.953125 30.99414062 C8.14372261 42.70245092 7.86140748 54.57154125 7.83203125 66.765625 C7.82778137 68.01371445 7.82353149 69.26180389 7.81915283 70.54771423 C7.80748142 75.7700717 7.80203693 80.99164181 7.84545898 86.21386719 C7.87246305 90.06517228 7.85554607 93.91433976 7.83203125 97.765625 C7.85256058 98.93047424 7.8730899 100.09532349 7.89424133 101.29547119 C7.79161314 110.04911285 5.10972825 115.04032233 0 122 C-13.36505195 145.49741196 -17.43087269 174.76091528 -10.25390625 200.90234375 C-9.84390385 202.27064155 -9.42596456 203.63658699 -9 205 C-8.79101074 205.6820752 -8.58202148 206.36415039 -8.36669922 207.06689453 C2.40386748 241.13738379 29.90497487 267.18899547 60.68847656 283.80029297 C79.96015135 293.80251201 100.81740061 299.57818502 122 304 C122 306 122 306 120.29101562 307.9519043 C119.50404297 308.73476807 118.71707031 309.51763184 117.90625 310.32421875 C117.04 311.18853516 116.17375 312.05285156 115.28125 312.94335938 C113.90453125 314.30170898 113.90453125 314.30170898 112.5 315.6875 C111.1696875 317.0168457 111.1696875 317.0168457 109.8125 318.37304688 C105.24972494 322.9056271 100.63635467 327.31274311 95.72875977 331.47119141 C80.74855663 344.71875983 75.29700421 363.16185158 73.25097656 382.40454102 C72.36921027 389.45180643 69.64557697 394.76595722 64.1875 399.375 C56.55941501 403.26382764 49.14460578 403.31061087 40.75 403.25 C39.69425781 403.25773437 38.63851562 403.26546875 37.55078125 403.2734375 C23.10171584 403.23806647 9.38147366 400.80614463 -1.875 391.0625 C-8.43844608 383.58701178 -12.03562324 373.23472622 -15.96484375 364.234375 C-16.48667236 363.04295898 -17.00850098 361.85154297 -17.54614258 360.62402344 C-18.57954154 358.25201567 -19.60197093 355.87519119 -20.61206055 353.49316406 C-24.06829078 345.51021542 -27.70849369 337.5664516 -35.25 332.6875 C-35.91515625 332.23761719 -36.5803125 331.78773438 -37.265625 331.32421875 C-45.7935996 327.19424248 -53.82409806 326.51886086 -63.2421875 326.60888672 C-65.26109188 326.62508902 -67.27802803 326.60889869 -69.296875 326.58984375 C-70.5859375 326.59371094 -71.875 326.59757812 -73.203125 326.6015625 C-74.94577637 326.60663818 -74.94577637 326.60663818 -76.72363281 326.61181641 C-81.18911175 327.14088582 -84.5335825 328.68022425 -87.875 331.6875 C-89.5388318 335.10759871 -89.80127117 338.32872119 -89 342 C-86.82425584 344.69105198 -85.08934144 346.45532928 -82 348 C-79.68889199 348.13147896 -77.37588494 348.2302985 -75.0625 348.3125 C-64.707311 348.87408274 -55.52210407 351.60608051 -48 359 C-41.35328447 367.75046158 -38.31573031 378.52144407 -34.75268555 388.76586914 C-28.30293396 407.208462 -20.13837162 420.32476524 -2.8203125 430.2734375 C9.74393605 436.28811247 22.86876517 435.44376778 36.47827148 435.43579102 C59.51075734 435.46492885 59.51075734 435.46492885 66.58007812 441.30541992 C78.12318922 453.5896984 73.63362654 476.8105554 74 490 C123.83 490 173.66 490 225 490 C225.0825 470.65375 225.165 451.3075 225.25 431.375 C225.28641602 425.28981934 225.32283203 419.20463867 225.36035156 412.93505859 C225.37373785 407.43074486 225.37373785 407.43074486 225.3817749 401.92642212 C225.38787546 399.49450748 225.40185622 397.06260416 225.42230225 394.63076782 C225.79034213 375.42231454 225.79034213 375.42231454 221 357 C220.34744232 355.41461929 220.34744232 355.41461929 219.68170166 353.79721069 C214.99866158 343.03356986 207.04553717 334.55068256 198.24365234 326.99682617 C193.80741323 323.04862164 189.67804447 318.78001727 185.5 314.5625 C184.5821875 313.64017578 183.664375 312.71785156 182.71875 311.76757812 C180.47684945 309.51400101 178.237334 307.25810925 176 305 C177.35689941 304.64772339 177.35689941 304.64772339 178.74121094 304.28833008 C182.83513151 303.21945735 186.91806247 302.11361444 191 301 C191.91072266 300.75330566 192.82144531 300.50661133 193.75976562 300.25244141 C225.20411697 291.66376797 252.40977356 278.74892022 276 256 C276.79019531 255.27296875 277.58039063 254.5459375 278.39453125 253.796875 C284.96344006 247.58459697 290.02294406 240.50084428 295 233 C295.64066406 232.04351562 296.28132813 231.08703125 296.94140625 230.1015625 C311.32809589 207.12148107 316.28058597 177.63861084 310.3125 151.1875 C307.13609987 138.46202035 302.13232435 123.2806921 293.40834045 113.15206909 C291.60363931 110.39432573 291.61605149 108.63299646 291.59936523 105.35205078 C291.58602646 104.21631622 291.57268768 103.08058167 291.5589447 101.91043091 C291.55877098 100.0714473 291.55877098 100.0714473 291.55859375 98.1953125 C291.53878197 96.28925735 291.53878197 96.28925735 291.51856995 94.34469604 C291.48455332 90.96011271 291.4622017 87.57591286 291.44702148 84.19122314 C291.42524149 79.46482558 291.3919081 74.73864439 291.34571838 70.01242065 C291.32168966 67.5013648 291.30656576 64.99020129 291.30210876 62.47903442 C291.20276117 51.09506733 290.08561912 39.93325685 286.375 29.125 C286.14554687 28.42503906 285.91609375 27.72507812 285.6796875 27.00390625 C285.13017962 25.33248644 284.56675396 23.66565094 284 22 C265.38996911 20.81771568 248.72462188 27.44000342 234.71484375 39.40625 C232.6297928 41.39829868 230.68919633 43.40123875 228.75390625 45.53125 C228.1921167 46.13557861 227.63032715 46.73990723 227.05151367 47.36254883 C225.95740878 48.5535251 224.88934585 49.7691166 223.8527832 51.01049805 C222.29697794 52.7105402 221.04305198 53.92742623 219 55 C215.77990031 54.99736057 213.02506262 54.03688459 210 53 C208.52328465 52.5963904 207.04408361 52.20176186 205.5625 51.81640625 C204.82128906 51.61241211 204.08007812 51.40841797 203.31640625 51.19824219 C165.03998722 40.69320475 122.49659796 40.25123878 85.02099609 54.52929688 C82.57564585 55.09883484 81.32779324 54.92491219 79 54 C77.37524414 52.65234375 77.37524414 52.65234375 75.78515625 50.9375 C75.18799805 50.30956543 74.59083984 49.68163086 73.97558594 49.03466797 C73.34426758 48.36322754 72.71294922 47.69178711 72.0625 47 C58.08963418 32.61496529 42.30680356 22.97802575 21.8203125 21.8203125 C19.53638313 21.81384245 17.27880885 21.85522861 15 22 Z " fill="#000000" transform="translate(145,0)"/>
</svg>
