<?xml version="1.0" encoding="UTF-8"?>
<svg version="1.1" xmlns="http://www.w3.org/2000/svg" width="512" height="512">
<path d="M0 0 C3.21834424 2.9933218 6.36994975 6.03922474 9.4375 9.1875 C10.29021484 9.97253906 10.29021484 9.97253906 11.16015625 10.7734375 C33.1040149 31.45214327 47.3948837 64.51211246 50.4375 94.1875 C50.54707031 95.16589844 50.65664063 96.14429688 50.76953125 97.15234375 C54.60516502 136.07124103 43.95984823 175.51767604 19.4375 206.1875 C15.0162744 211.43111573 10.34972284 216.40123159 5.4375 221.1875 C4.91414062 221.75597656 4.39078125 222.32445312 3.8515625 222.91015625 C-16.79065099 244.81528998 -49.91379212 259.22262921 -79.5625 262.1875 C-80.63757813 262.29707031 -81.71265625 262.40664063 -82.8203125 262.51953125 C-121.80927674 265.97599971 -160.78287104 255.79764386 -191.5625 231.1875 C-196.80611573 226.7662744 -201.77623159 222.09972284 -206.5625 217.1875 C-207.13097656 216.66414062 -207.69945312 216.14078125 -208.28515625 215.6015625 C-230.2290149 194.92285673 -244.5198837 161.86288754 -247.5625 132.1875 C-247.67207031 131.20910156 -247.78164062 130.23070312 -247.89453125 129.22265625 C-251.73016502 90.30375897 -241.08484823 50.85732396 -216.5625 20.1875 C-212.1412744 14.94388427 -207.47472284 9.97376841 -202.5625 5.1875 C-202.03914063 4.61902344 -201.51578125 4.05054688 -200.9765625 3.46484375 C-180.29785673 -18.4790149 -147.23788754 -32.7698837 -117.5625 -35.8125 C-116.09490234 -35.97685547 -116.09490234 -35.97685547 -114.59765625 -36.14453125 C-73.11059943 -40.23326878 -31.2794383 -27.81932344 0 0 Z M-181.5625 16.1875 C-182.71878906 17.13109375 -182.71878906 17.13109375 -183.8984375 18.09375 C-197.86047405 29.86251644 -208.29115744 45.57018839 -215.5625 62.1875 C-215.84464355 62.82768066 -216.12678711 63.46786133 -216.41748047 64.12744141 C-229.56682656 94.64911156 -229.17004486 129.41736654 -217.47558594 160.3137207 C-212.13390908 173.63031503 -204.6716121 185.16547436 -195.5625 196.1875 C-194.9334375 196.95835937 -194.304375 197.72921875 -193.65625 198.5234375 C-181.88748356 212.48547405 -166.17981161 222.91615744 -149.5625 230.1875 C-148.92231934 230.46964355 -148.28213867 230.75178711 -147.62255859 231.04248047 C-117.10088844 244.19182656 -82.33263346 243.79504486 -51.4362793 232.10058594 C-38.11968497 226.75890908 -26.58452564 219.2966121 -15.5625 210.1875 C-14.79164063 209.5584375 -14.02078125 208.929375 -13.2265625 208.28125 C0.73547405 196.51248356 11.16615744 180.80481161 18.4375 164.1875 C18.71964355 163.54731934 19.00178711 162.90713867 19.29248047 162.24755859 C32.44182656 131.72588844 32.04504486 96.95763346 20.35058594 66.0612793 C15.00890908 52.74468497 7.5466121 41.20952564 -1.5625 30.1875 C-2.1915625 29.41664063 -2.820625 28.64578125 -3.46875 27.8515625 C-15.23751644 13.88952595 -30.94518839 3.45884256 -47.5625 -3.8125 C-48.20268066 -4.09464355 -48.84286133 -4.37678711 -49.50244141 -4.66748047 C-94.09445463 -23.87861183 -144.76276053 -14.22550782 -181.5625 16.1875 Z " fill="#000000" transform="translate(354.5625,142.8125)"/>
<path d="M0 0 C3.84374979 2.44602259 5.93438209 4.52440477 7 9 C7.14082382 15.33707176 3.04917853 18.63953806 -1 23 C-3.44040571 25.54016144 -5.93064633 28.02555576 -8.4375 30.5 C-9.12126709 31.17998047 -9.80503418 31.85996094 -10.50952148 32.56054688 C-13.39737773 35.43225143 -16.29123075 38.29788438 -19.18457031 41.1640625 C-21.31265725 43.27392787 -23.43762917 45.38689645 -25.5625 47.5 C-26.20437256 48.13357422 -26.84624512 48.76714844 -27.50756836 49.41992188 C-31.32885144 53.22076495 -34.92430992 57.1384185 -38.39453125 61.26342773 C-41.38624767 64.49944946 -44.49637318 66.77022163 -49.04296875 67.1875 C-52.82498017 66.9604374 -54.79535817 66.14368469 -57.9375 63.9375 C-60.43570215 60.37945451 -61.67170227 57.36229116 -61 53 C-57.76523293 46.15579738 -52.80374134 41.35269654 -47.484375 36.05078125 C-46.08967987 34.64822334 -46.08967987 34.64822334 -44.66680908 33.21733093 C-42.70489523 31.24652273 -40.73746372 29.28143566 -38.76611328 27.32006836 C-36.25498384 24.82042662 -33.76006345 22.3052808 -31.26931381 19.78535175 C-28.87123356 17.36439303 -26.45830023 14.95844782 -24.046875 12.55078125 C-23.16014099 11.65281326 -22.27340698 10.75484528 -21.35980225 9.82966614 C-8.39999779 -2.98666588 -8.39999779 -2.98666588 0 0 Z " fill="#000000" transform="translate(434,72)"/>
<path d="M0 0 C9.62200952 7.01037266 17.92661677 16.67161356 26.34277344 25.04760742 C28.03723352 26.73046833 29.73617136 28.40883206 31.43945312 30.08276367 C33.92525435 32.52587894 36.39752092 34.98199449 38.8671875 37.44140625 C39.62450165 38.18121231 40.3818158 38.92101837 41.16207886 39.6832428 C46.09787277 44.63942676 51 49.80068048 51 57.1875 C49.79170608 60.58582664 48.62811034 62.51021126 46 65 C42.04638615 66.79031571 39.98390272 67.29520835 35.80053711 66.04003906 C30.79865465 63.72797993 27.28959643 59.76541205 23.50390625 55.859375 C22.31534279 54.65876434 22.31534279 54.65876434 21.10276794 53.43389893 C18.57968105 50.88191882 16.07061992 48.31668369 13.5625 45.75 C11.05543961 43.20020974 8.54549868 40.65332363 6.03294373 38.10894775 C4.47421124 36.52879582 2.91902066 34.94513904 1.36805725 33.35736084 C-2.69999837 29.21568313 -6.85061362 25.28978845 -11.30311584 21.56207275 C-14.52761904 18.59374485 -16.77300507 15.47329889 -17.1875 10.95703125 C-16.94818931 6.97101265 -16.19045664 5.23556479 -13.625 2.0625 C-9.25617038 -1.37015184 -5.19651657 -1.80765547 0 0 Z " fill="#000000" transform="translate(390,374)"/>
<path d="M0 0 C3.55664131 2.49721624 5.22824961 4.6628534 6.0625 8.875 C6.72825815 13.23434789 4.46346336 16.58283423 2 20 C-0.16837904 22.37376616 -2.53714131 24.48895439 -4.9375 26.625 C-10.91343204 32.06172983 -16.67455001 37.64917804 -22.32421875 43.421875 C-22.96437424 44.07340546 -23.60452972 44.72493591 -24.26408386 45.39620972 C-26.86636471 48.04527465 -29.46831195 50.69407903 -32.04611206 53.36700439 C-33.87638049 55.26371665 -35.72179367 57.14453158 -37.5703125 59.0234375 C-38.11463425 59.59672791 -38.65895599 60.17001831 -39.21977234 60.76068115 C-42.84063374 64.4061988 -45.77831228 66.12857109 -51 67 C-54.65996831 65.90200951 -57.12295048 64.84781454 -59.875 62.1875 C-61.38354402 59.25421996 -61.93596426 57.32985858 -62 54 C-59.02687301 46.3499438 -53.97045652 41.40407097 -48.1953125 35.69921875 C-47.22825476 34.73200572 -46.26186621 33.76412319 -45.29611206 32.79560852 C-43.28001888 30.77813818 -41.2571966 28.76775549 -39.22900391 26.76245117 C-36.63924382 24.20113095 -34.06540845 21.62447819 -31.49620247 19.04255962 C-29.50631322 17.04569385 -27.50908822 15.05629905 -25.50951767 13.06913185 C-24.09789244 11.66416853 -22.69172557 10.25372775 -21.28567505 8.84318542 C-20.41812592 7.98832047 -19.55057678 7.13345551 -18.65673828 6.25268555 C-17.9004715 5.50182175 -17.14420471 4.75095795 -16.36502075 3.9773407 C-11.09437234 -0.42932998 -6.53784575 -2.16582956 0 0 Z " fill="#000000" transform="translate(133,374)"/>
<path d="M0 0 C3.60801514 3.12858553 6.8508304 6.40734748 9.95166016 10.03466797 C13.65153917 14.27680273 17.60238162 18.18548516 21.66015625 22.08203125 C23.13760978 23.52252417 24.61414607 24.96395837 26.08984375 26.40625 C28.38583719 28.64656807 30.68643437 30.88097071 33.00292969 33.10009766 C35.25921037 35.26542232 37.49232734 37.45252565 39.72265625 39.64453125 C40.4173703 40.29997925 41.11208435 40.95542725 41.82785034 41.6307373 C45.00452345 44.78870729 47.13495773 47.11598504 47.80126953 51.63867188 C47.7917849 55.89447996 47.27802003 57.91627463 44.79296875 61.36328125 C41.40779832 63.80375295 39.20662994 64.33570384 35.04296875 64.61328125 C27.60441491 63.31900133 22.27447826 56.11208143 17.60693359 50.66455078 C13.98400825 46.51299897 10.13618953 42.65919403 6.1796875 38.828125 C4.75266706 37.42833371 3.32625216 36.02792488 1.90039062 34.62695312 C-0.31684758 32.45306943 -2.53757736 30.28331493 -4.76879883 28.1237793 C-6.94338524 26.01587608 -9.10162778 23.89232655 -11.2578125 21.765625 C-11.92549149 21.1268895 -12.59317047 20.48815399 -13.28108215 19.83006287 C-17.27381364 15.8606276 -19.35519925 12.98940283 -20.20703125 7.36328125 C-18.83621823 2.79390451 -17.47004535 -0.31143833 -13.20703125 -2.63671875 C-8.43148344 -4.77748156 -3.94472323 -2.92537882 0 0 Z " fill="#000000" transform="translate(91.20703125,74.63671875)"/>
<path d="M0 0 C2.58297781 2.18991597 4.48415844 3.96831688 6 7 C6.10741651 9.21981279 6.14891299 11.4429066 6.16113281 13.6652832 C6.16609772 14.3500473 6.17106262 15.0348114 6.17617798 15.74032593 C6.1908077 18.01048786 6.19760348 20.28057988 6.203125 22.55078125 C6.2088765 24.12778221 6.21463424 25.70478314 6.22039795 27.28178406 C6.23091073 30.59142381 6.23675134 33.90103925 6.24023438 37.21069336 C6.24571481 41.44767524 6.26973177 45.68433505 6.29820633 49.92121601 C6.31684993 53.18034293 6.32203926 56.43939261 6.32357025 59.69856834 C6.32659425 61.26025335 6.33461428 62.82193708 6.34775543 64.38356972 C6.36484986 66.57147158 6.36292768 68.75859127 6.35644531 70.9465332 C6.36009094 72.19070511 6.36373657 73.43487701 6.36749268 74.7167511 C5.9657076 78.30637473 5.17589855 80.14602231 3 83 C-1.2258785 85.81725233 -5.03624688 85.79958384 -10 85 C-12.82424288 82.80977082 -14.41508603 81.16982793 -16 78 C-16.11254964 75.78560191 -16.15938249 73.56777242 -16.17700195 71.35058594 C-16.18357315 70.66742813 -16.19014435 69.98427032 -16.19691467 69.28041077 C-16.21665625 67.01506442 -16.22831335 64.74978445 -16.23828125 62.484375 C-16.24235678 61.71038612 -16.2464323 60.93639725 -16.25063133 60.13895416 C-16.27149777 56.04071824 -16.28579583 51.94251585 -16.29516602 47.84423828 C-16.30621951 43.61622589 -16.34060497 39.3887414 -16.38033772 35.16091537 C-16.4065195 31.90603678 -16.4148593 28.65128353 -16.41844749 25.3963089 C-16.42331106 23.8382232 -16.4349186 22.280143 -16.45348549 20.72216034 C-16.47790711 18.53668297 -16.47690711 16.35256503 -16.4699707 14.16699219 C-16.47583694 12.92504089 -16.48170319 11.6830896 -16.48774719 10.40350342 C-15.90520514 6.33852081 -14.54795308 4.18248289 -12 1 C-7.90407986 -1.54611252 -4.58302563 -1.22759615 0 0 Z " fill="#000000" transform="translate(261,427)"/>
<path d="M0 0 C0.6847641 -0.0049649 1.3695282 -0.00992981 2.07504272 -0.01504517 C4.34520466 -0.02967489 6.61529668 -0.03647066 8.88549805 -0.04199219 C10.46249901 -0.04774369 12.03949994 -0.05350142 13.61650085 -0.05926514 C16.92614061 -0.06977792 20.23575605 -0.07561853 23.54541016 -0.07910156 C27.78239203 -0.08458199 32.01905185 -0.10859896 36.25593281 -0.13707352 C39.51505972 -0.15571712 42.77410941 -0.16090644 46.03328514 -0.16243744 C47.59497015 -0.16546143 49.15665387 -0.17348147 50.71828651 -0.18662262 C52.90618838 -0.20371705 55.09330807 -0.20179487 57.28125 -0.1953125 C58.52542191 -0.19895813 59.76959381 -0.20260376 61.0514679 -0.20635986 C64.64109153 0.19542521 66.4807391 0.98523427 69.3347168 3.16113281 C72.15196913 7.38701131 72.13430063 11.19737969 71.3347168 16.16113281 C69.14448762 18.9853757 67.50454473 20.57621885 64.3347168 22.16113281 C62.1203187 22.27368245 59.90248922 22.3205153 57.68530273 22.33813477 C56.66056602 22.34799156 56.66056602 22.34799156 55.61512756 22.35804749 C53.34978121 22.37778907 51.08450125 22.38944616 48.8190918 22.39941406 C48.04510292 22.40348959 47.27111404 22.40756512 46.47367096 22.41176414 C42.37543504 22.43263059 38.27723264 22.44692864 34.17895508 22.45629883 C29.95094269 22.46735232 25.7234582 22.50173778 21.49563217 22.54147053 C18.24075358 22.56765231 14.98600032 22.57599212 11.7310257 22.57958031 C10.17293999 22.58444387 8.6148598 22.59605141 7.05687714 22.6146183 C4.87139976 22.63903993 2.68728182 22.63803992 0.50170898 22.63110352 C-0.74024231 22.63696976 -1.9821936 22.642836 -3.26177979 22.64888 C-7.3267624 22.06633796 -9.48280031 20.70908589 -12.6652832 18.16113281 C-14.57831784 15.08364232 -14.66781718 13.30303574 -14.6027832 9.66113281 C-13.48805283 5.49947275 -11.94554647 3.88135113 -8.6652832 1.16113281 C-5.76813427 -0.28744165 -3.23671953 0.01779723 0 0 Z " fill="#000000" transform="translate(440.665283203125,244.8388671875)"/>
<path d="M0 0 C1.02473671 -0.0098568 1.02473671 -0.0098568 2.07017517 -0.01991272 C4.33552152 -0.0396543 6.60080149 -0.05131139 8.86621094 -0.0612793 C9.64019981 -0.06535482 10.41418869 -0.06943035 11.21163177 -0.07362938 C15.30986769 -0.09449582 19.40807009 -0.10879387 23.50634766 -0.11816406 C27.73436005 -0.12921756 31.96184454 -0.16360301 36.18967056 -0.20333576 C39.44454915 -0.22951754 42.69930241 -0.23785735 45.95427704 -0.24144554 C47.51236274 -0.2463091 49.07044293 -0.25791664 50.6284256 -0.27648354 C52.81390297 -0.30090516 54.99802091 -0.29990515 57.18359375 -0.29296875 C59.04652069 -0.30176811 59.04652069 -0.30176811 60.94708252 -0.31074524 C65.01206513 0.27179681 67.16810305 1.62904888 70.35058594 4.17700195 C72.26362057 7.25449245 72.35311992 9.03509903 72.28808594 12.67700195 C71.17335556 16.83866202 69.6308492 18.45678363 66.35058594 21.17700195 C63.45343701 22.62557642 60.92202227 22.32033754 57.68530273 22.33813477 C56.65815659 22.34558212 56.65815659 22.34558212 55.61026001 22.35317993 C53.34009808 22.36780966 51.07000606 22.37460543 48.79980469 22.38012695 C47.22280373 22.38587845 45.64580279 22.39163619 44.06880188 22.3973999 C40.75916213 22.40791268 37.44954668 22.41375329 34.13989258 22.41723633 C29.9029107 22.42271676 25.66625089 22.44673373 21.42936993 22.47520828 C18.17024301 22.49385189 14.91119333 22.49904121 11.65201759 22.5005722 C10.09033259 22.5035962 8.52864886 22.51161624 6.96701622 22.52475739 C4.77911436 22.54185182 2.59199466 22.53992963 0.40405273 22.53344727 C-0.84011917 22.5370929 -2.08429108 22.54073853 -3.36616516 22.54449463 C-6.9557888 22.14270956 -8.79543637 21.3529005 -11.64941406 19.17700195 C-14.46666639 14.95112346 -14.4489979 11.14075507 -13.64941406 6.17700195 C-9.42649677 0.73166123 -6.64934126 0.05284076 0 0 Z " fill="#000000" transform="translate(13.6494140625,244.822998046875)"/>
<path d="M0 0 C2.82424288 2.19022918 4.41508603 3.83017207 6 7 C6.11254964 9.21439809 6.15938249 11.43222758 6.17700195 13.64941406 C6.18357315 14.33257187 6.19014435 15.01572968 6.19691467 15.71958923 C6.21665625 17.98493558 6.22831335 20.25021555 6.23828125 22.515625 C6.24235678 23.28961388 6.2464323 24.06360275 6.25063133 24.86104584 C6.27149777 28.95928176 6.28579583 33.05748415 6.29516602 37.15576172 C6.30621951 41.38377411 6.34060497 45.6112586 6.38033772 49.83908463 C6.4065195 53.09396322 6.4148593 56.34871647 6.41844749 59.6036911 C6.42331106 61.1617768 6.4349186 62.719857 6.45348549 64.27783966 C6.47790711 66.46331703 6.47690711 68.64743497 6.4699707 70.83300781 C6.47877007 72.69593475 6.47877007 72.69593475 6.48774719 74.59649658 C5.90520514 78.66147919 4.54795308 80.81751711 2 84 C-1.0774905 85.91303463 -2.85809708 86.00253398 -6.5 85.9375 C-10.66166007 84.82276962 -12.27978168 83.28026327 -15 80 C-16.44857447 77.10285107 -16.14333559 74.57143633 -16.16113281 71.3347168 C-16.16609772 70.6499527 -16.17106262 69.9651886 -16.17617798 69.25967407 C-16.1908077 66.98951214 -16.19760348 64.71942012 -16.203125 62.44921875 C-16.2088765 60.87221779 -16.21463424 59.29521686 -16.22039795 57.71821594 C-16.23091073 54.40857619 -16.23675134 51.09896075 -16.24023438 47.78930664 C-16.24571481 43.55232476 -16.26973177 39.31566495 -16.29820633 35.07878399 C-16.31684993 31.81965707 -16.32203926 28.56060739 -16.32357025 25.30143166 C-16.32659425 23.73974665 -16.33461428 22.17806292 -16.34775543 20.61643028 C-16.36484986 18.42852842 -16.36292768 16.24140873 -16.35644531 14.0534668 C-16.36009094 12.80929489 -16.36373657 11.56512299 -16.36749268 10.2832489 C-15.9657076 6.69362527 -15.17589855 4.85397769 -13 2 C-8.7741215 -0.81725233 -4.96375312 -0.79958384 0 0 Z " fill="#000000" transform="translate(261,0)"/>
</svg>
